<svg xmlns="http://www.w3.org/2000/svg" viewBox="0 0 201 121" xmlns:v="https://vecta.io/nano"><path d="M.5.5h200v120H.5z" fill="#ebeef2" stroke="#d2d2d2" stroke-miterlimit="10"/><path d="M13.2 12.6h174.7v95.8H13.2z" fill="#fff"/><path d="M107.2 12.6h81v95.8h-81z" fill="#bdc5cb"/><path d="M138.8 70h17.8l-4.9-10.6-5.9 7.9-4.1-3-2.9 5.7zm6.5-5.7l6.8-9 7.8 16.8h-24.5l5.5-11.1 4.4 3.3zm-1.9-7a4.23 4.23 0 0 1-4.2-4.2 4.23 4.23 0 0 1 4.2-4.2 4.23 4.23 0 0 1 4.2 4.2 4.16 4.16 0 0 1-4.2 4.2zm0-2.1c1.2 0 2.1-.9 2.1-2.1s-.9-2.1-2.1-2.1-2.1.9-2.1 2.1 1 2.1 2.1 2.1z" fill="#fff"/><path d="M55.4 20.7h37.3a.68.68 0 0 1 .7.7v3.5a.68.68 0 0 1-.7.7H55.4a.68.68 0 0 1-.7-.7v-3.5a.68.68 0 0 1 .7-.7z" fill="#3e585f"/><path d="M26.9 33.4h66.2c.2 0 .4.2.4.4V37c0 .2-.2.4-.4.4H26.9c-.2 0-.4-.2-.4-.4v-3.2c0-.3.2-.4.4-.4zm0 9.8h66.2c.2 0 .4.2.4.4v3.2c0 .2-.2.4-.4.4H26.9c-.2 0-.4-.2-.4-.4v-3.2c0-.2.2-.4.4-.4zm20.8 9.9h45.4c.2 0 .4.2.4.4v3.2c0 .2-.2.4-.4.4H47.7c-.2 0-.4-.2-.4-.4v-3.2c0-.3.2-.4.4-.4zm24.1 14.1h15.9c3 0 5.4 2.4 5.4 5.3h0c0 2.9-2.4 5.3-5.4 5.3H71.8c-3 0-5.4-2.4-5.4-5.3h0c0-3 2.4-5.3 5.4-5.3z" fill="#83a2aa"/><path d="M75.3 71.2H84c.2 0 .4.2.4.4v1.9c0 .2-.2.4-.4.4h-8.8c-.2 0-.4-.2-.4-.4v-1.9c.2-.3.3-.4.5-.4z" fill="#fff"/><path d="M182.1 19.4l2.3-2.3c.3-.3.3-.7 0-.9l-.3-.3c-.3-.3-.7-.3-.9 0l-2.3 2.3-2.3-2.3c-.3-.3-.7-.3-.9 0l-.3.3c-.3.3-.3.7 0 .9l2.3 2.3-2.3 2.3c-.3.3-.3.7 0 .9l.3.3c.3.3.7.3.9 0l2.3-2.3 2.3 2.3c.3.3.7.3.9 0l.3-.3c.3-.3.3-.7 0-.9l-2.3-2.3z" fill="#3e585f"/></svg>