<svg xmlns="http://www.w3.org/2000/svg" viewBox="0 0 201 121" xmlns:v="https://vecta.io/nano"><path d="M.5.5h200v120H.5V.5z" fill="#ebeef2" stroke="#d2d2d2" stroke-miterlimit="10"/><path d="M65.6 10.9h70v99.5h-70V10.9z" fill="#fff"/><path d="M76.9 18h37.3a.68.68 0 0 1 .7.7v3.5a.68.68 0 0 1-.7.7H76.9a.68.68 0 0 1-.7-.7v-3.5c0-.4.4-.7.7-.7z" fill="#3e585f"/><path d="M76.5 28.7h45.8c.1 0 .3.2.3.4v3.2c0 .2-.1.4-.3.4H76.5c-.1 0-.3-.2-.3-.4v-3.2c0-.3.2-.4.3-.4zm.1 7.7h29.5c.1 0 .3.2.3.4V40c0 .2-.1.4-.3.4H76.6c-.1 0-.3-.2-.3-.4v-3.2c0-.3.2-.4.3-.4zm4.4 10h10.1c1.9 0 3.4 1.5 3.4 3.3v.1h0c0 1.9-1.5 3.4-3.3 3.4h-.1H81c-1.9 0-3.4-1.5-3.4-3.3v-.1h0a3.37 3.37 0 0 1 3.4-3.4z" fill="#83a2aa"/><path d="M83.2 49h5.7c.1 0 .2.1.2.2v1.2c0 .1-.1.2-.2.2h-5.7c-.1 0-.2-.1-.2-.2v-1.2c.1-.1.1-.2.2-.2z" fill="#fff"/><path d="M65.4 60.4h70v50h-70v-50z" fill="#bdc5cb"/><path d="M131.4 16.5l2-2c.3-.3.3-.6 0-.8l-.3-.3c-.3-.3-.6-.3-.8 0l-2 2-2-2c-.3-.3-.6-.3-.8 0l-.3.3c-.3.3-.3.6 0 .8l2 2-2 2c-.3.3-.3.6 0 .8l.3.3c.3.3.6.3.8 0l2-2 2 2c.3.3.6.3.8 0l.3-.3c.3-.3.3-.6 0-.8l-2-2z" fill="#3e585f"/><path d="M94 92.3h12.9l-3.5-7.7-4.3 5.7-3-2.2-2.1 4.2zm4.7-4.1l4.9-6.5 5.6 12.2H91.6l4.1-8 3 2.3zm-1.3-5.1c-1.7 0-3-1.3-3-3a3.08 3.08 0 0 1 3-3 3.08 3.08 0 0 1 3 3c0 1.7-1.3 3-3 3zm0-1.5a1.54 1.54 0 0 0 1.5-1.5 1.54 1.54 0 0 0-1.5-1.5 1.54 1.54 0 0 0-1.5 1.5c-.1.9.7 1.5 1.5 1.5z" fill="#fff"/></svg>