<?xml version="1.0" encoding="utf-8"?>
<!-- Generator: Adobe Illustrator 25.4.1, SVG Export Plug-In . SVG Version: 6.00 Build 0)  -->
<svg version="1.1" id="Layer_1" xmlns="http://www.w3.org/2000/svg" xmlns:xlink="http://www.w3.org/1999/xlink" x="0px" y="0px"
	 viewBox="0 0 256 256" style="enable-background:new 0 0 256 256;" xml:space="preserve">
<style type="text/css">
	.st0{fill:#1A79BF;}
	.st1{fill:#EEF9FF;}
</style>
<g>
	<path class="st0" d="M246,256H10c-5.5,0-10-4.5-10-10V10C0,4.5,4.5,0,10,0h236c5.5,0,10,4.5,10,10v236C256,251.5,251.5,256,246,256
		z"/>
	<g>
		<path class="st1" d="M160.9,124.4c-2.2,0-4.3-1.2-5.3-3.6c-6-14.2-19.7-23.1-35.1-23.1s-29.1,9.1-35.1,23.1
			c-1.2,2.9-4.5,4.3-7.4,3.1c-2.9-1.2-4.3-4.5-3.1-7.4c7.7-18.3,25.7-30.3,45.7-30.3s37.7,11.7,45.7,30.3c1.2,2.9-0.2,6.3-3.1,7.4
			C162.3,124.1,161.6,124.4,160.9,124.4z"/>
		<path class="st1" d="M160.9,126.1c-3.1,0-5.7-1.8-6.9-4.7c-2.8-6.6-7.4-12.2-13.4-16.1c-5.9-3.9-12.9-5.9-20.1-5.9
			c-14.6,0-27.7,8.7-33.5,22c-0.8,1.8-2.2,3.3-4.1,4c-1.9,0.8-3.9,0.8-5.7,0c-1.9-0.8-3.3-2.2-4-4c-0.8-1.9-0.8-3.9,0-5.7
			c3.9-9.3,10.5-17.2,18.9-22.8c8.5-5.6,18.3-8.6,28.4-8.6s19.9,2.9,28.3,8.5c8.4,5.6,15,13.4,19,22.9c0.8,1.9,0.8,3.9,0,5.7
			c-0.8,1.9-2.2,3.3-4,4l-0.1,0C162.8,125.8,161.9,126.1,160.9,126.1L160.9,126.1z M120.5,96c7.9,0,15.5,2.3,22,6.5
			c6.5,4.3,11.6,10.4,14.7,17.6v0c0.6,1.5,2,2.5,3.7,2.5c0.4,0,1-0.2,1.5-0.4c0.9-0.4,1.7-1.2,2.1-2.2c0.4-1,0.4-2,0-3
			c-3.7-8.8-9.9-16.1-17.7-21.3s-16.9-7.9-26.4-7.9s-18.6,2.8-26.4,8c-7.8,5.2-13.9,12.6-17.6,21.2c-0.4,1-0.4,2,0,3
			c0.4,1,1.2,1.7,2.2,2.2c0.9,0.4,2,0.4,2.9,0c1-0.4,1.8-1.2,2.2-2.2C90.1,105.4,104.5,96,120.5,96L120.5,96z"/>
		<path class="st1" d="M120.5,151.5c-19.9,0-37.7-11.7-45.7-30.3c-1.2-2.9,0.2-6.3,3.1-7.4c2.9-1.2,6.3,0.2,7.4,3.1
			c6,14.2,19.7,23.1,35.1,23.1s29.1-9.1,35.1-23.1c1.2-2.9,4.5-4.3,7.4-3.1c2.9,1.2,4.3,4.5,3.1,7.4
			C158.5,139.5,140.4,151.5,120.5,151.5L120.5,151.5z"/>
		<path class="st1" d="M120.5,153.3c-10.1,0-19.9-2.9-28.3-8.5s-15-13.4-19-22.9c-1.5-3.7,0.3-8.2,4-9.7c3.7-1.5,8.2,0.3,9.7,4.1
			c2.8,6.6,7.4,12.2,13.4,16.1c5.9,3.9,12.9,5.9,20.1,5.9c14.6,0,27.7-8.7,33.5-22c0.8-1.8,2.2-3.3,4.1-4s3.9-0.8,5.7,0
			c1.9,0.8,3.3,2.2,4,4c0.8,1.9,0.8,3.9,0,5.7c-3.9,9.3-10.5,17.2-18.9,22.8C140.4,150.3,130.6,153.3,120.5,153.3L120.5,153.3z
			 M80.1,115.1c-0.5,0-1,0.1-1.4,0.3c-2,0.8-3,3.2-2.2,5.2c3.7,8.8,9.9,16.1,17.7,21.3s16.9,7.9,26.4,7.9s18.6-2.8,26.4-8
			c7.8-5.2,13.9-12.6,17.6-21.2c0.4-1,0.4-2,0-3c-0.4-1-1.2-1.7-2.2-2.2c-0.9-0.4-2-0.4-2.9,0c-1,0.4-1.8,1.2-2.2,2.2
			c-6.3,14.7-20.7,24.1-36.7,24.1c-7.9,0-15.5-2.3-22-6.5c-6.5-4.3-11.6-10.4-14.7-17.6C83.1,116.1,81.6,115.1,80.1,115.1
			L80.1,115.1z M120.5,137.1c-10.1,0-18.3-8.2-18.3-18.3s8.2-18.3,18.3-18.3s18.3,8.2,18.3,18.3S130.6,137.1,120.5,137.1
			L120.5,137.1z M120.5,111.9c-3.8,0-7,3.1-7,7s3.1,7,7,7c3.8,0,7-3.1,7-7S124.3,111.9,120.5,111.9L120.5,111.9z M120.9,202.5
			c-21.9,0-42.4-8.5-57.9-24c-15.5-15.5-24-36-24-57.9s8.5-42.4,24-57.9c15.5-15.5,36-24,57.9-24s42.4,8.5,57.9,24
			c15.5,15.5,24,36,24,57.9s-8.5,42.4-24,57.9S142.7,202.5,120.9,202.5L120.9,202.5z M120.9,61.4c-32.6,0-59.2,26.6-59.2,59.2
			s26.6,59.2,59.2,59.2s59.2-26.6,59.2-59.2S153.5,61.4,120.9,61.4L120.9,61.4z"/>
		<path class="st1" d="M213.7,213.9L213.7,213.9c-4.4,4.4-11.6,4.4-16,0l-24.3-24.3c-4.4-4.4-4.4-11.6,0-16l0,0
			c4.4-4.4,11.6-4.4,16,0l24.3,24.3C218.1,202.3,218.1,209.5,213.7,213.9L213.7,213.9z"/>
	</g>
</g>
</svg>
