<svg xmlns="http://www.w3.org/2000/svg" viewBox="0 0 471.2 472.5" fill="#1a79bf" xmlns:v="https://vecta.io/nano"><path d="M322.6 226.6c-5.7 0-11.5-3.1-14-9.5-15.9-37.5-52.2-61.1-92.9-61.1s-77 24.2-92.9 61.1c-3.1 7.6-12 11.5-19.7 8.2-7.7-3.2-11.5-12-8.2-19.7 20.4-48.4 68.1-80.1 120.9-80.1s99.9 31.1 120.9 80.1c3.1 7.6-.6 16.6-8.2 19.7-2.1.7-4 1.3-5.9 1.3z"/><path d="M322.6 231.3c-8.3 0-15.2-4.8-18.3-12.4-7.4-17.5-19.7-32.2-35.4-42.5s-34.1-15.7-53.2-15.7c-38.6 0-73.4 22.9-88.7 58.3-2 4.8-5.9 8.7-10.8 10.7s-10.2 2-15 0c-4.9-2-8.7-5.8-10.7-10.7-2.1-4.9-2.1-10.3 0-15.1 10.4-24.6 27.7-45.4 50-60.3 22.4-14.9 48.4-22.7 75.2-22.7s52.7 7.8 74.9 22.5 39.6 35.6 50.2 60.5c2 4.9 2 10.2-.1 15.2-2.1 4.9-5.8 8.7-10.7 10.7l-.3.1c-2 .6-4.5 1.4-7.1 1.4zm-106.9-79.9c21 0 41.1 6 58.3 17.2 17.3 11.3 30.7 27.4 38.9 46.7v.1c1.6 4.1 5.2 6.6 9.7 6.6 1.1 0 2.6-.5 4.1-1 2.5-1.1 4.4-3.1 5.5-5.7a10.56 10.56 0 0 0 .1-8c-9.9-23.2-26.1-42.7-46.8-56.4S240.7 130 215.7 130s-49.2 7.3-70 21.2a126.21 126.21 0 0 0-46.6 56.1 9.87 9.87 0 0 0 0 7.9c1.1 2.6 3.1 4.6 5.8 5.7 2.5 1.1 5.3 1 7.8 0a11.14 11.14 0 0 0 5.8-5.7c16.8-38.7 54.9-63.8 97.2-63.8z"/><path d="M215.7 298.5c-52.8 0-99.9-31.1-120.9-80.1-3.1-7.6.6-16.6 8.2-19.7s16.6.6 19.7 8.2c15.9 37.5 52.2 61.1 92.9 61.1s77-24.2 92.9-61.1c3.1-7.6 12-11.5 19.7-8.2 7.7 3.2 11.5 12 8.2 19.7-20.2 48.4-67.9 80.1-120.7 80.1z"/><path d="M215.7 303.2c-26.8 0-52.7-7.8-74.9-22.5s-39.6-35.6-50.2-60.5c-4.1-9.9.8-21.7 10.7-25.8s21.7.8 25.8 10.8c7.4 17.5 19.7 32.2 35.4 42.5s34.1 15.7 53.2 15.7c38.6 0 73.4-22.9 88.7-58.3 2-4.8 5.9-8.7 10.8-10.7s10.2-2 15 0c4.9 2 8.7 5.8 10.7 10.7 2.1 4.9 2.1 10.3 0 15.1-10.4 24.6-27.7 45.4-50 60.3-22.4 14.8-48.4 22.7-75.2 22.7zm-107-101c-1.3 0-2.6.2-3.8.8-5.3 2.2-7.9 8.5-5.7 13.7 9.9 23.2 26.1 42.7 46.8 56.4s44.8 20.9 69.8 20.9 49.2-7.3 70-21.2a126.21 126.21 0 0 0 46.6-56.1 9.87 9.87 0 0 0 0-7.9c-1.1-2.6-3.1-4.6-5.8-5.7-2.5-1-5.3-1-7.8 0a11.14 11.14 0 0 0-5.8 5.7c-16.8 38.8-54.9 63.9-97.2 63.9-21 0-41.1-6-58.3-17.2-17.3-11.3-30.7-27.4-38.9-46.7-1.8-4.1-5.8-6.6-9.9-6.6zm107 58.2c-26.7 0-48.4-21.6-48.4-48.4s21.6-48.4 48.4-48.4 48.4 21.6 48.4 48.4-21.6 48.4-48.4 48.4zm0-66.8a18.4 18.4 0 1 0 0 36.8 18.4 18.4 0 1 0 0-36.8zm1 239.8c-57.9 0-112.3-22.5-153.2-63.5C22.5 329 0 274.6 0 216.7S22.5 104.4 63.5 63.5C104.4 22.5 158.8 0 216.7 0S329 22.5 369.9 63.5c40.9 40.9 63.5 95.3 63.5 153.2S410.9 329 369.9 369.9s-95.3 63.5-153.2 63.5zm0-373.4C130.3 60 60 130.3 60 216.7s70.3 156.7 156.7 156.7 156.7-70.3 156.7-156.7S303.1 60 216.7 60z"/><path d="M462.4 463.7h0c-11.7 11.7-30.7 11.7-42.4 0l-64.3-64.3c-11.7-11.7-11.7-30.7 0-42.4h0c11.7-11.7 30.7-11.7 42.4 0l64.3 64.3c11.7 11.7 11.7 30.7 0 42.4z"/></svg>